<svg width="39" height="28" viewBox="0 0 39 28" fill="none" xmlns="http://www.w3.org/2000/svg">
<path d="M38.6066 6.4001C38.6066 6.4001 38.2355 3.78018 37.0926 2.62979C35.6453 1.11572 34.0273 1.1083 33.2852 1.01924C27.9711 0.633301 19.9926 0.633301 19.9926 0.633301H19.9777C19.9777 0.633301 11.9992 0.633301 6.68515 1.01924C5.94297 1.1083 4.325 1.11572 2.87773 2.62979C1.73476 3.78018 1.37109 6.4001 1.37109 6.4001C1.37109 6.4001 0.985153 9.48018 0.985153 12.5528V15.4325C0.985153 18.5052 1.36367 21.5853 1.36367 21.5853C1.36367 21.5853 1.73476 24.2052 2.87031 25.3556C4.31757 26.8696 6.21758 26.8177 7.06367 26.981C10.1066 27.2704 19.9852 27.3595 19.9852 27.3595C19.9852 27.3595 27.9711 27.3446 33.2852 26.9661C34.0273 26.8771 35.6453 26.8696 37.0926 25.3556C38.2355 24.2052 38.6066 21.5853 38.6066 21.5853C38.6066 21.5853 38.9852 18.5126 38.9852 15.4325V12.5528C38.9852 9.48018 38.6066 6.4001 38.6066 6.4001ZM16.059 18.9282V8.24815L26.3234 13.6067L16.059 18.9282Z" fill="#676767"/>
</svg>
