<svg id="_3" data-name="3" xmlns="http://www.w3.org/2000/svg" width="5522" height="3508" viewBox="0 0 5522 3508">
  <defs>
    <style>
      .cls-1 {
        fill: #eebf63;
        fill-rule: evenodd;
      }

      .cls-2 {
        fill: #2f2f2f;
        font-size: 92px;
        font-family: sans-serif;
      }
    </style>
  </defs>
  <path id="Shape_1_copy" data-name="Shape 1 copy" class="cls-1" d="M4119.53,1846.65c10.99,148.93-154.97,320.35-428.64,389.59-270.06,84.68-638.76,91.75-956.02,24.23-396.15-69.85-712.64-158.67-1111.9-112.98-218.65,26.07-374.15,106.13-376.24,103.71-3.83-4.41,115.78-58.45,293.68-123.89,179.59-63.59,418.09-129.02,688.99-122.58,200.81,1.9,404.46,41.92,607.78,30.82,202.47-5.71,404.9-53.87,579.8-142.17,175.31-85.48,323.74-213.49,436.26-229.95,113.53-23.11,188.03,41.55,229.75,88.06,21.68,28.72,35.03,58.87,36.54,95.16"/>
  <path class="cls-1" d="M278.569,1834.59c-15.457-266.16,287.249-567.39,780.271-683.18,487-143.43,1148.76-145.52,1716.08-15.93,708.82,136,1274.15,303.59,1991.86,233.44,393.07-40.3,674.38-178.76,678.06-174.37,6.74,7.98-209.41,101.02-530.5,212.74-324.06,108.39-753.88,218.35-1239.77,199.13-360.26-9.13-724.54-86.39-1089.66-72.39-363.47,4.41-728.07,84.59-1044.42,237.21-317,147.58-586.989,371.83-789.361,398-204.375,38.01-336.2-79.54-409.727-163.75-38.074-51.88-61.171-106.09-62.833-170.9"/>
  <text id="Khusenoff" class="cls-2" transform="translate(639.939 1952.609) scale(6.171 6.179)">Khusenov</text>
</svg>
