<svg width="38" height="38" viewBox="0 0 38 38" fill="none" xmlns="http://www.w3.org/2000/svg">
<path d="M19.0037 3.42215C24.0813 3.42215 24.6826 3.44442 26.6794 3.5335C28.5353 3.61516 29.5374 3.92694 30.2055 4.18676C31.0889 4.52823 31.7273 4.94393 32.388 5.60461C33.0561 6.27271 33.4643 6.90369 33.8058 7.78707C34.0656 8.45517 34.3774 9.46474 34.4591 11.3131C34.5482 13.3174 34.5704 13.9187 34.5704 18.9889C34.5704 24.0664 34.5482 24.6677 34.4591 26.6646C34.3774 28.5204 34.0656 29.5226 33.8058 30.1907C33.4643 31.074 33.0486 31.7124 32.388 32.3731C31.7199 33.0412 31.0889 33.4495 30.2055 33.791C29.5374 34.0508 28.5278 34.3626 26.6794 34.4442C24.6751 34.5333 24.0738 34.5556 19.0037 34.5556C13.9262 34.5556 13.3249 34.5333 11.328 34.4442C9.47216 34.3626 8.47001 34.0508 7.80191 33.791C6.91854 33.4495 6.28013 33.0338 5.61946 32.3731C4.95136 31.705 4.54307 31.074 4.2016 30.1907C3.94179 29.5226 3.63001 28.513 3.54835 26.6646C3.45927 24.6603 3.437 24.059 3.437 18.9889C3.437 13.9113 3.45927 13.31 3.54835 11.3131C3.63001 9.45732 3.94179 8.45517 4.2016 7.78707C4.54307 6.90369 4.95878 6.26529 5.61946 5.60461C6.28756 4.93651 6.91854 4.52823 7.80191 4.18676C8.47001 3.92694 9.47959 3.61516 11.328 3.5335C13.3249 3.44442 13.9262 3.42215 19.0037 3.42215ZM19.0037 0C13.8445 0 13.1987 0.02227 11.1721 0.11135C9.15296 0.20043 7.7648 0.527056 6.56222 0.994726C5.30768 1.48466 4.24614 2.13049 3.19203 3.19203C2.13049 4.24614 1.48466 5.30768 0.994725 6.5548C0.527056 7.7648 0.20043 9.14554 0.11135 11.1647C0.02227 13.1987 0 13.8445 0 19.0037C0 24.1629 0.02227 24.8088 0.11135 26.8353C0.20043 28.8545 0.527056 30.2426 0.994725 31.4452C1.48466 32.6997 2.13049 33.7613 3.19203 34.8154C4.24614 35.8695 5.30768 36.5228 6.5548 37.0053C7.7648 37.4729 9.14554 37.7996 11.1647 37.8887C13.1912 37.9777 13.8371 38 18.9963 38C24.1555 38 24.8013 37.9777 26.8279 37.8887C28.847 37.7996 30.2352 37.4729 31.4378 37.0053C32.6849 36.5228 33.7464 35.8695 34.8005 34.8154C35.8547 33.7613 36.5079 32.6997 36.9904 31.4526C37.4581 30.2426 37.7847 28.8619 37.8738 26.8427C37.9629 24.8162 37.9852 24.1703 37.9852 19.0111C37.9852 13.8519 37.9629 13.2061 37.8738 11.1795C37.7847 9.16038 37.4581 7.77222 36.9904 6.56964C36.5228 5.30768 35.8769 4.24614 34.8154 3.19203C33.7613 2.13792 32.6997 1.48467 31.4526 1.00215C30.2426 0.534479 28.8619 0.207853 26.8427 0.118773C24.8088 0.02227 24.1629 0 19.0037 0Z" fill="#676767"/>
<path d="M19.0037 9.24204C13.6144 9.24204 9.24204 13.6144 9.24204 19.0037C9.24204 24.393 13.6144 28.7654 19.0037 28.7654C24.393 28.7654 28.7654 24.393 28.7654 19.0037C28.7654 13.6144 24.393 9.24204 19.0037 9.24204ZM19.0037 25.3358C15.5073 25.3358 12.6716 22.5001 12.6716 19.0037C12.6716 15.5073 15.5073 12.6716 19.0037 12.6716C22.5001 12.6716 25.3358 15.5073 25.3358 19.0037C25.3358 22.5001 22.5001 25.3358 19.0037 25.3358Z" fill="#676767"/>
<path d="M31.4304 8.85593C31.4304 10.1179 30.4059 11.1349 29.1514 11.1349C27.8894 11.1349 26.8724 10.1105 26.8724 8.85593C26.8724 7.59396 27.8969 6.57696 29.1514 6.57696C30.4059 6.57696 31.4304 7.60138 31.4304 8.85593Z" fill="#676767"/>
</svg>
